<svg id="Capa_1" data-name="Capa 1" xmlns="http://www.w3.org/2000/svg" xmlns:xlink="http://www.w3.org/1999/xlink" viewBox="0 0 96.97 17.42"><defs><style>.cls-1{fill:#b0a5b1;stroke:#575756;stroke-miterlimit:10;stroke-width:0.63px;}.cls-2{fill:url(#Degradado_sin_nombre_16);}.cls-3{fill:url(#Degradado_sin_nombre_16-2);}</style><linearGradient id="Degradado_sin_nombre_16" x1="22.35" y1="12.47" x2="94.62" y2="12.47" gradientUnits="userSpaceOnUse"><stop offset="0" stop-color="#54556e"/><stop offset="0.37" stop-color="#696580"/><stop offset="0.63" stop-color="#726e84"/><stop offset="1" stop-color="#7b7888"/></linearGradient><linearGradient id="Degradado_sin_nombre_16-2" x1="0.63" y1="9.85" x2="21.27" y2="9.85" xlink:href="#Degradado_sin_nombre_16"/></defs><path class="cls-1" d="M2.25,9.39H23.52V3.75l74.55,8.3a.12.12,0,0,1,0,.23L23.3,20.46l-.11-6L2.44,14.05a.61.61,0,0,1-.61-.62V9.81A.42.42,0,0,1,2.25,9.39Z" transform="translate(-1.51 -3.4)"/><polygon class="cls-2" points="94.63 8.8 22.49 16.15 22.35 8.94 94.63 8.8"/><polygon class="cls-3" points="0.63 8.94 21.27 8.94 21.27 10.76 0.63 10.33 0.63 8.94"/></svg>