<svg id="Capa_1" data-name="Capa 1" xmlns="http://www.w3.org/2000/svg" xmlns:xlink="http://www.w3.org/1999/xlink" viewBox="0 0 96.97 17.42"><defs><style>.cls-1{fill:#b0a5b1;stroke:#575756;stroke-miterlimit:10;stroke-width:0.63px;}.cls-2{fill:url(#Degradado_sin_nombre_16);}.cls-3{fill:url(#Degradado_sin_nombre_16-2);}</style><linearGradient id="Degradado_sin_nombre_16" x1="23.86" y1="15.87" x2="96.14" y2="15.87" gradientTransform="matrix(-1, 0, 0, 1, 98.49, -3.4)" gradientUnits="userSpaceOnUse"><stop offset="0" stop-color="#54556e"/><stop offset="0.37" stop-color="#696580"/><stop offset="0.63" stop-color="#726e84"/><stop offset="1" stop-color="#7b7888"/></linearGradient><linearGradient id="Degradado_sin_nombre_16-2" x1="2.14" y1="13.24" x2="22.79" y2="13.24" xlink:href="#Degradado_sin_nombre_16"/></defs><path class="cls-1" d="M97.75,9.39H76.48V3.75L1.93,12.05a.12.12,0,0,0,0,.23L76.7,20.46l.11-6,20.75-.43a.61.61,0,0,0,.61-.62V9.81A.42.42,0,0,0,97.75,9.39Z" transform="translate(-1.51 -3.4)"/><polygon class="cls-2" points="2.35 8.8 74.48 16.15 74.63 8.94 2.35 8.8"/><polygon class="cls-3" points="96.34 8.94 75.7 8.94 75.7 10.76 96.34 10.33 96.34 8.94"/></svg>